<svg xmlns="http://www.w3.org/2000/svg" viewBox="0 0 448 512"><!--!Font Awesome Free 6.5.2 by @fontawesome - https://fontawesome.com License - https://fontawesome.com/license/free Copyright 2024 Fonticons, Inc.--><path d="M408.8 128C386.4 127.6 368 146.4 368 168.8V256h-8V79.8c0-22.4-18.4-41.2-40.8-40.8C297.5 39.4 280 57.2 280 79v177h-8V40.8C272 18.4 253.6-.4 231.2 0 209.5 .4 192 18.2 192 40v216h-8V80.8c0-22.4-18.4-41.2-40.8-40.8C121.5 40.4 104 58.2 104 80v236l-31.6-43.5c-13-17.9-38-21.8-55.9-8.8-17.9 13-21.8 38-8.8 55.9l125.6 172.7A48 48 0 0 0 172.1 512h197.6c22.3 0 41.6-15.3 46.7-37l26.5-112.7a192 192 0 0 0 5.1-44V168c0-21.8-17.5-39.6-39.2-40z"/></svg>