<svg xmlns="http://www.w3.org/2000/svg" viewBox="0 0 512 512"><!--!Font Awesome Free 6.5.2 by @fontawesome - https://fontawesome.com License - https://fontawesome.com/license/free Copyright 2024 Fonticons, Inc.--><path d="M216 440c0-22.1 17.9-40 40-40v-8h-32c-22.1 0-40-17.9-40-40s17.9-40 40-40h32v-8H48c-26.5 0-48-21.5-48-48s21.5-48 48-48h208v-13.6l-177.6-69.7c-24.7-9.7-36.8-37.6-27.1-62.2 9.7-24.7 37.6-36.8 62.2-27.1l190.3 74.8 24.9-31.1c12.3-15.4 34-19.5 51.1-9.7l112 64A40 40 0 0 1 512 168v240c0 18.6-12.8 34.7-30.8 38.9l-136 32A40 40 0 0 1 336 480h-80c-22.1 0-40-17.9-40-40z"/></svg>